<svg xmlns="http://www.w3.org/2000/svg" viewBox="0 0 64 64">
  <rect width="64" height="64" rx="14" fill="#2B2520"/>
  <g transform="translate(8.5,4) scale(0.40)" fill="none" stroke="#E8C9A0"
     stroke-width="6.5" stroke-linecap="round" stroke-linejoin="round">
    <path d="M30 42 C29 25 37 19 45 21 C51 22 55 26 60 26 C65 26 69 22 75 21
             C83 19 91 25 90 42 C95 63 86 80 80 110 C78 123 69 125 65 110
             C63 98 61 94 60 94 C59 94 57 98 55 110 C51 125 42 123 40 110
             C34 80 25 63 30 42 Z"/>
    <path d="M60 64 V96" stroke-width="5"/>
  </g>
  <circle cx="32" cy="29.6" r="3.4" fill="#E8C9A0"/>
</svg>
