<svg xmlns="http://www.w3.org/2000/svg" viewBox="0 0 120 140" fill="none">
  <defs>
    <linearGradient id="bronze" x1="20" y1="10" x2="100" y2="130" gradientUnits="userSpaceOnUse">
      <stop offset="0" stop-color="#C89A5E"/>
      <stop offset="0.5" stop-color="#A8814F"/>
      <stop offset="1" stop-color="#7A5A36"/>
    </linearGradient>
  </defs>
  <g stroke="url(#bronze)" stroke-width="4.5" stroke-linecap="round" stroke-linejoin="round">
    <path d="M30 42
             C29 25 37 19 45 21
             C51 22 55 26 60 26
             C65 26 69 22 75 21
             C83 19 91 25 90 42
             C95 63 86 80 80 110
             C78 123 69 125 65 110
             C63 98 61 94 60 94
             C59 94 57 98 55 110
             C51 125 42 123 40 110
             C34 80 25 63 30 42 Z"/>
    <path d="M60 60 V96" stroke-width="3"/>
    <path d="M60 72 L45 85" stroke-width="3"/>
    <path d="M60 79 L75 91" stroke-width="3"/>
  </g>
  <g fill="url(#bronze)">
    <circle cx="60" cy="58" r="4.5"/>
    <circle cx="43" cy="87" r="4"/>
    <circle cx="77" cy="93" r="4"/>
  </g>
</svg>
